<svg xmlns="http://www.w3.org/2000/svg" viewBox="0 0 120 120" width="120" height="120">
  <defs>
    <linearGradient id="blueGrad" x1="0%" y1="0%" x2="100%" y2="100%">
      <stop offset="0%" style="stop-color:#60a5fa;stop-opacity:1" />
      <stop offset="100%" style="stop-color:#3b82f6;stop-opacity:1" />
    </linearGradient>
  </defs>

  <circle cx="60" cy="60" r="56" fill="url(#blueGrad)" opacity="0.15"/>
  <circle cx="60" cy="60" r="56" fill="none" stroke="url(#blueGrad)" stroke-width="2"/>

  <g fill="#3b82f6">
    <path d="M 35 35 L 85 35 L 85 45 L 65 45 L 65 85 L 55 85 L 55 45 L 35 45 Z"/>

    <path d="M 75 60 Q 75 52 82 52 Q 89 52 89 60 Q 89 65 85 68 Q 89 71 89 76 Q 89 84 82 84 Q 75 84 75 76 L 80 76 Q 80 80 82 80 Q 84 80 84 76 Q 84 72 80 70 L 80 66 Q 84 64 84 60 Q 84 56 82 56 Q 80 56 80 60 Z"/>
  </g>
</svg>
